<?xml version="1.0" standalone="no"?>
<!DOCTYPE svg PUBLIC "-//W3C//DTD SVG 20010904//EN"
 "http://www.w3.org/TR/2001/REC-SVG-20010904/DTD/svg10.dtd">
<svg version="1.0" xmlns="http://www.w3.org/2000/svg"
 width="1032.000000pt" height="1032.000000pt" viewBox="0 0 1032.000000 1032.000000"
 preserveAspectRatio="xMidYMid meet">
<metadata>
Created by potrace 1.11, written by Peter Selinger 2001-2013
</metadata>
<g transform="translate(0.000000,1032.000000) scale(0.100000,-0.100000)"
fill="#000000" stroke="none">
<path d="M9673 9983 c-37 -32 -97 -80 -132 -108 -35 -27 -73 -60 -84 -72 -11
-13 -25 -23 -30 -23 -5 0 -19 -10 -31 -22 -12 -13 -46 -42 -76 -65 -30 -23
-67 -53 -82 -65 -14 -13 -35 -30 -45 -38 -46 -37 -129 -106 -139 -115 -7 -5
-26 -21 -44 -35 -17 -14 -41 -33 -53 -44 -12 -10 -38 -30 -57 -45 -19 -14 -42
-33 -50 -41 -8 -8 -60 -51 -115 -95 -55 -44 -107 -87 -117 -95 -9 -8 -23 -20
-30 -25 -21 -16 -122 -99 -128 -105 -3 -3 -39 -32 -80 -65 -41 -33 -77 -62
-80 -65 -3 -3 -39 -32 -80 -65 -41 -33 -82 -67 -91 -75 -9 -8 -25 -22 -35 -30
-70 -54 -122 -96 -139 -112 -11 -10 -60 -51 -110 -90 -49 -40 -95 -77 -101
-83 -6 -5 -26 -22 -45 -37 -33 -25 -433 -352 -474 -386 -11 -9 -42 -35 -70
-57 -27 -22 -55 -44 -61 -50 -6 -5 -28 -23 -48 -40 -21 -16 -46 -37 -56 -45
-10 -8 -35 -28 -55 -45 -21 -16 -52 -42 -69 -56 -50 -43 -269 -221 -311 -254
-21 -16 -43 -35 -49 -40 -6 -6 -47 -40 -91 -75 -44 -36 -82 -67 -85 -70 -3 -3
-25 -21 -50 -40 -25 -19 -52 -41 -60 -50 -8 -8 -31 -27 -50 -41 -19 -15 -46
-37 -60 -49 -14 -12 -40 -34 -59 -48 -109 -86 -327 -267 -329 -274 -2 -4 -10
-8 -18 -8 -8 0 -14 -3 -14 -8 0 -6 -35 -36 -129 -109 -13 -10 -32 -26 -42 -35
-18 -17 -164 -18 -2770 -18 l-2751 0 7 -247 c8 -323 12 -398 31 -588 3 -33 8
-80 9 -105 2 -25 4 -45 5 -45 1 0 3 -13 4 -30 2 -16 6 -57 11 -90 4 -33 8 -77
9 -97 0 -21 3 -38 7 -38 3 0 5 -10 6 -22 0 -13 4 -43 8 -68 9 -56 14 -95 21
-140 10 -73 12 -85 14 -85 2 0 4 -9 5 -20 2 -17 15 -88 30 -170 2 -11 7 -31
10 -45 3 -14 8 -36 10 -50 2 -14 6 -34 9 -45 3 -11 14 -60 25 -110 11 -49 32
-135 46 -189 14 -55 27 -109 29 -120 2 -12 9 -33 15 -48 6 -16 8 -28 5 -28 -4
0 -1 -7 6 -15 7 -8 10 -15 7 -15 -3 0 4 -28 14 -62 11 -35 22 -72 24 -82 4
-16 15 -53 30 -104 3 -7 5 -16 7 -20 1 -4 21 -63 45 -132 24 -69 45 -132 48
-140 5 -23 75 -202 91 -234 8 -16 14 -33 14 -39 0 -5 6 -23 14 -40 52 -114
118 -264 120 -272 4 -20 181 -373 223 -443 23 -40 43 -76 44 -80 2 -14 53 -97
61 -100 5 -2 6 -8 2 -13 -3 -5 0 -9 5 -9 6 0 11 -5 11 -12 0 -6 22 -47 50 -90
27 -43 50 -81 50 -84 0 -3 5 -10 10 -17 6 -7 35 -50 65 -96 30 -46 58 -87 62
-90 5 -3 14 -18 20 -33 7 -16 17 -28 23 -28 5 0 10 -6 10 -13 0 -8 9 -22 20
-32 11 -10 20 -22 20 -27 0 -5 5 -14 10 -21 6 -7 24 -28 40 -47 16 -19 30 -38
30 -42 0 -4 15 -23 34 -43 19 -19 31 -35 28 -35 -4 0 -2 -4 3 -8 6 -4 23 -25
40 -47 16 -21 36 -46 45 -55 8 -9 33 -38 55 -65 101 -122 444 -475 463 -475 6
0 14 -9 17 -20 3 -11 9 -20 13 -20 4 0 21 -12 37 -26 26 -23 63 -54 146 -125
11 -9 35 -27 54 -40 19 -13 35 -27 35 -31 0 -5 7 -8 15 -8 8 0 15 -3 15 -7 0
-5 17 -19 37 -33 20 -14 41 -30 47 -35 6 -6 27 -20 46 -32 l35 -22 1 -178 1
-178 2159 0 2159 0 0 174 0 175 90 67 c50 37 101 77 115 88 14 11 54 43 90 71
36 29 67 55 70 59 3 4 19 17 35 30 129 99 423 398 595 606 41 50 78 91 83 93
4 2 7 9 7 16 0 6 9 18 20 26 11 8 20 18 20 23 0 5 6 14 13 21 6 7 21 25 32 41
11 15 27 36 36 45 8 9 19 23 22 31 4 8 21 32 38 54 29 38 108 153 177 256 17
27 32 54 32 59 0 6 4 10 8 10 10 0 37 50 34 63 -1 4 2 7 6 7 5 0 21 21 36 48
14 26 31 54 36 62 18 27 149 260 151 268 1 4 4 15 7 25 2 9 8 17 12 17 4 0 15
20 26 45 10 25 22 45 28 45 5 0 7 3 3 6 -3 4 12 41 33 83 21 42 58 119 80 171
23 52 49 111 57 130 9 19 17 40 18 45 2 6 9 24 16 40 7 17 12 33 11 38 -1 4 2
7 8 7 5 0 10 6 10 14 0 7 7 27 15 42 8 16 15 36 15 45 0 8 4 19 9 25 5 5 18
36 29 69 11 33 27 76 36 96 8 20 12 39 9 43 -4 3 -1 6 6 6 7 0 9 5 6 10 -4 6
-2 16 3 23 5 7 33 86 62 177 28 91 55 176 60 190 11 30 32 109 35 130 1 8 7
28 14 43 6 16 9 33 5 38 -3 5 0 9 7 9 7 0 10 2 7 6 -3 3 1 26 8 51 8 26 12 49
9 51 -3 3 0 11 7 19 6 7 8 16 5 20 -4 3 -3 11 2 17 5 6 12 27 15 46 3 19 11
53 16 75 6 22 13 51 16 65 3 13 12 56 20 95 9 38 17 79 18 90 2 11 6 34 10 50
9 41 15 73 21 115 3 20 8 47 10 60 13 62 21 114 36 220 21 155 35 275 44 365
12 132 15 157 20 165 4 6 1 10 -5 10 -6 0 -8 5 -3 13 4 6 8 26 9 42 1 17 5 84
9 150 8 142 12 253 15 430 l2 130 -1443 5 -1444 5 113 73 c61 39 116 72 122
72 5 0 10 4 10 8 0 5 12 15 28 23 15 8 32 17 37 22 11 8 31 21 205 132 69 43
127 82 130 85 3 4 12 9 21 13 9 3 65 37 124 76 58 39 108 71 110 71 2 0 45 27
95 61 51 33 99 63 108 66 8 4 23 13 31 21 9 7 43 30 76 51 33 21 89 56 125 79
36 23 139 88 230 146 91 58 170 110 177 115 7 6 15 11 18 11 3 0 27 15 53 33
67 45 85 56 102 64 8 4 17 9 20 13 3 3 65 44 138 90 171 110 182 116 216 136
16 9 34 20 40 25 13 11 91 61 231 149 55 35 143 91 195 125 52 34 99 62 104
63 5 0 12 4 15 9 7 10 68 53 75 53 3 0 71 43 151 95 80 52 147 95 149 95 2 0
43 26 92 58 49 32 105 67 124 78 19 10 46 29 60 42 13 12 30 22 37 22 7 0 13
2 13 4 0 5 -35 86 -81 184 -22 46 -39 85 -39 87 0 4 -65 149 -82 183 -10 20
-13 21 -28 7 -9 -8 -20 -15 -24 -15 -9 0 -160 -103 -164 -112 -2 -5 -8 -8 -13
-8 -5 0 -63 -36 -129 -80 -66 -44 -124 -80 -129 -80 -5 0 -11 -4 -13 -9 -1 -4
-100 -72 -218 -149 -118 -77 -220 -145 -227 -151 -7 -6 -24 -16 -38 -23 -14
-6 -25 -14 -25 -18 0 -4 -11 -12 -25 -18 -14 -7 -31 -17 -38 -22 -9 -8 -175
-118 -317 -210 -8 -5 -31 -21 -50 -34 -19 -14 -58 -39 -86 -55 -29 -17 -57
-38 -64 -46 -7 -8 -16 -15 -20 -15 -4 0 -157 -99 -339 -220 -182 -121 -336
-220 -340 -220 -5 0 -11 -4 -13 -8 -1 -5 -64 -48 -138 -98 -170 -112 -160
-106 -160 -100 0 3 55 49 123 103 67 54 124 101 125 106 2 4 8 7 13 7 5 0 18
8 28 18 11 9 26 22 33 27 7 6 35 28 63 50 27 22 54 43 60 48 5 4 21 17 35 28
14 11 40 33 59 47 18 15 70 56 115 92 45 36 96 76 114 90 18 14 43 33 55 43
12 10 37 31 56 45 69 55 96 77 99 85 2 4 8 7 13 7 5 0 21 11 36 25 24 21 99
81 234 187 47 37 457 363 494 392 17 14 134 106 260 207 127 100 277 220 335
266 57 46 111 88 120 93 13 8 11 17 -15 67 -16 32 -32 60 -35 63 -3 3 -10 14
-16 25 -78 143 -102 187 -126 228 -15 26 -28 52 -28 57 0 22 -32 7 -97 -47z
m-2177 -2381 c-17 -16 -18 -16 -5 5 7 12 15 20 18 17 3 -2 -3 -12 -13 -22z"/>
</g>
</svg>
