<svg id="Layer_1" data-name="Layer 1" xmlns="http://www.w3.org/2000/svg" viewBox="0 0 708.66 104.47"><defs><style>.cls-1{fill:#d9dadb;}.cls-1,.cls-2,.cls-3{fill-rule:evenodd;}.cls-2{fill:#fff;}.cls-3{fill:#202866;}</style></defs><polygon class="cls-1" points="0 104.47 708.66 104.47 708.66 0 0 0 0 104.47 0 104.47"/><path class="cls-2" d="M215.41,162.7c.72.82,1.46,1.6,2.24,2.36a40.07,40.07,0,0,0,55.82,0,37.25,37.25,0,0,0,10.66-19.41,39.43,39.43,0,0,0,.79-8,39.94,39.94,0,0,0-.64-7.24,37.4,37.4,0,0,0-10.81-20.23c-.52-.5-1-1-1.57-1.45-.71-.81-1.46-1.6-2.25-2.36a39.13,39.13,0,0,0-12.82-8.32,40.48,40.48,0,0,0-30.19,0,39.08,39.08,0,0,0-12.8,8.32,37.5,37.5,0,0,0-10.76,19.49,39.63,39.63,0,0,0-.79,8,37.54,37.54,0,0,0,11.55,27.37c.51.5,1,1,1.57,1.45Zm8.18-6.68c-.59-.71-1.15-1.44-1.67-2.19a27.77,27.77,0,0,1-4.38-10.3,30.45,30.45,0,0,1-.1-11.22,29.29,29.29,0,0,1,1.67-5.72,28.59,28.59,0,0,1,6.24-9.37h0a28.08,28.08,0,0,1,4-3.43,27.6,27.6,0,0,1,10.25-4.36,29.92,29.92,0,0,1,11.16-.1,27.76,27.76,0,0,1,10.34,4.17,28.67,28.67,0,0,1,2.53,1.89,28.13,28.13,0,0,1,4.4,7.34,28.42,28.42,0,0,1,1.58,5.18,30.35,30.35,0,0,1,.12,11.28,28,28,0,0,1-4.17,10.38,29.19,29.19,0,0,1-3.74,4.56,30.08,30.08,0,0,1-4.1,3.45A28.14,28.14,0,0,1,247.51,162a29.29,29.29,0,0,1-11.08.11,27.31,27.31,0,0,1-5.6-1.66,28,28,0,0,1-4.73-2.55,31.06,31.06,0,0,1-2.51-1.89ZM172,171.8l2.49,7.37,29.28-78.59h-5.23l1.42-3.81H188.62l-16.4,47.35L155.56,95.77l-1.24,3.64L151.74,92,134,144.06l-15-43.48h-2.51l-1.31-3.81H103.87l29.3,78.59,1.14-3.37,2.68,7.19,17.42-51.79,16.22,48L172,171.8Zm547.49-11V138.91h29.41v-9.86H745v-3.82H719.44v-14.9h29.41v-9.75H745V96.77H705.17v73.86H709v3.82h39.86v-9.87H745v-3.81Zm-30.93,9.86,2.92,3.82h13.31l-27.47-34.3c1,0,2.05-.07,3.07-.17a26.55,26.55,0,0,0,3.95-.69,19.92,19.92,0,0,0,3.83-1.39,16.21,16.21,0,0,0,3.8-2.6,14.47,14.47,0,0,0,2.31-2.75,20.6,20.6,0,0,0,2.93-11.4,27.87,27.87,0,0,0-.38-4.65,22.49,22.49,0,0,0-1.46-5,17.39,17.39,0,0,0-5.25-7.1h0a7,7,0,0,0-.62-.45,16.08,16.08,0,0,0-3.18-3.36h0a16,16,0,0,0-2.85-1.74A17.48,17.48,0,0,0,680,97.6h0a23.13,23.13,0,0,0-2.62-.45c-.93-.11-1.81-.19-2.74-.24-1.81-.1-3.62-.15-5.43-.14H651.3v73.86h3.82v3.82H665.4V141.57l22.21,29.06ZM665.4,128.06V109.74H671c1,0,1.92,0,2.91.07s2.17.14,3.26.28A19.1,19.1,0,0,1,682,111.3c.13.31.25.62.35.93a14.76,14.76,0,0,1,.53,2.44,21.29,21.29,0,0,1,.16,2.76,18.52,18.52,0,0,1-.11,2.11,12.78,12.78,0,0,1-.43,2.3,8.87,8.87,0,0,1-.88,2,6.33,6.33,0,0,1-1.59,1.79,8.94,8.94,0,0,1-2.68,1.27,22,22,0,0,1-3.28.7c-1.09.15-2.19.25-3.3.31s-2.36.1-3.58.1ZM573.55,162.7c.72.82,1.46,1.6,2.24,2.36a40.07,40.07,0,0,0,55.82,0,37.25,37.25,0,0,0,10.66-19.41,39.43,39.43,0,0,0,.79-8,39.94,39.94,0,0,0-.64-7.24,37.4,37.4,0,0,0-10.81-20.23c-.51-.5-1-1-1.57-1.45-.71-.81-1.46-1.6-2.25-2.36A39.13,39.13,0,0,0,615,98.09a40.48,40.48,0,0,0-30.19,0,39.08,39.08,0,0,0-12.8,8.32,37.5,37.5,0,0,0-10.76,19.49,39.63,39.63,0,0,0-.79,8A37.54,37.54,0,0,0,572,161.25c.51.5,1,1,1.57,1.45Zm8.18-6.68c-.59-.71-1.15-1.44-1.67-2.19a27.77,27.77,0,0,1-4.38-10.3,30.45,30.45,0,0,1-.1-11.22,29.29,29.29,0,0,1,1.67-5.72,28.59,28.59,0,0,1,6.24-9.37h0a28.08,28.08,0,0,1,4-3.43,27.67,27.67,0,0,1,10.25-4.36,29.92,29.92,0,0,1,11.16-.1,27.76,27.76,0,0,1,10.34,4.17,28.67,28.67,0,0,1,2.53,1.89,27.86,27.86,0,0,1,4.4,7.34,28.42,28.42,0,0,1,1.58,5.18,30.35,30.35,0,0,1,.12,11.28,28,28,0,0,1-4.17,10.38,29.7,29.7,0,0,1-3.73,4.56,30.78,30.78,0,0,1-4.11,3.45A28.14,28.14,0,0,1,605.65,162a29.29,29.29,0,0,1-11.08.11,27.31,27.31,0,0,1-5.6-1.66,28,28,0,0,1-4.73-2.55,31.06,31.06,0,0,1-2.51-1.89Zm-34.17,14.61.71,3.82h10.31l-15.42-79-2.1,5-1.71-8.79L515,149.34,492.17,95.46,491.48,99l-3.12-7.38-15.42,79h4.56l-.74,3.82h10.3l8-43.08,18.83,43.55,1.08-2.52,2.73,6.33,19.73-45.85,7.06,37.75Zm-123.94-22.3-10.77-13c.51-.32,1-.65,1.52-1,.91-.62,1.8-1.27,2.66-1.95a33.62,33.62,0,0,0,2.54-2.24,23.6,23.6,0,0,0,2.55-2.92,16.9,16.9,0,0,0,3.3-10.17,20.93,20.93,0,0,0-.2-2.86,14.58,14.58,0,0,0-4.55-8.8A16.49,16.49,0,0,0,419,104a14.46,14.46,0,0,0-2.13-2.46c-3.49-3.23-7.92-4.38-12.52-4.38a18,18,0,0,0-12.56,4.45,15,15,0,0,0-2,2.17,15.35,15.35,0,0,0-2.94,9.42,18.11,18.11,0,0,0,1.2,6.64,19,19,0,0,0,1.51,3,24.81,24.81,0,0,0,2.14,2.94h0l2.18,2.43c-.7.42-1.39.85-2.07,1.3-1.14.74-2.25,1.53-3.33,2.36a38.88,38.88,0,0,0-3.15,2.72,30.19,30.19,0,0,0-3.15,3.53,24.67,24.67,0,0,0-1.65,2.51,20,20,0,0,0-2.65,10c0,6,1.89,11.27,6.19,15.39a22.14,22.14,0,0,0,1.73,1.48,19.72,19.72,0,0,0,2.09,2.33,20.36,20.36,0,0,0,7.11,4.44,23.32,23.32,0,0,0,4.25,1.11,28.94,28.94,0,0,0,4.74.37,29.32,29.32,0,0,0,12-2.51h0a31.85,31.85,0,0,0,5.38-3.08,37.32,37.32,0,0,0,4-3.29l3.09,3.71h.64l3.17,3.82h12.86L433,159.78a62,62,0,0,0,4.23-4.65,73.18,73.18,0,0,0,4.46-6.06l.41-.62-6.58-7.2-.14.21-3.68-4-.68,1q-2.13,3.18-4.44,6.23c-.95,1.26-1.92,2.47-2.95,3.66ZM394,160.93a12.43,12.43,0,0,1-1.81-6.72,11.57,11.57,0,0,1,2.07-6.69,15.56,15.56,0,0,1,1.56-1.88c.64-.66,1.26-1.24,2-1.84s1.35-1.11,2.06-1.65,1.54-1.13,2.33-1.67l1-.65L416,155.41c-1,.88-2,1.72-3.08,2.52-.7.52-1.41,1-2.14,1.48h0a22.49,22.49,0,0,1-2.53,1.43,19.25,19.25,0,0,1-3.53,1.33,14.67,14.67,0,0,1-8.65-.22,11.7,11.7,0,0,1-2.07-1Zm9.56-36.78-.51-.61h0a9.77,9.77,0,0,1-1.76-2.92,8.69,8.69,0,0,1-.6-3.19,8,8,0,0,1,.44-2.76,7,7,0,0,1,1.64-2.56,6.6,6.6,0,0,1,2.33-1.53,8.2,8.2,0,0,1,3.09-.55,9.36,9.36,0,0,1,2.85.41l.37.13a8.41,8.41,0,0,1,.47,2.86,9.35,9.35,0,0,1-1.54,5.17,12.07,12.07,0,0,1-2,2.33,18,18,0,0,1-2.72,2l-2,1.18ZM335.2,170.63l3.2,3.82H352L317.24,134l31.85-33.38h-7.45l3.64-3.81H332.4l-25.09,26.52V100.58H303.5V96.77H293.16v73.86H297v3.82h10.33V138.12l27.27,32.51Z" transform="translate(-70.98 -82.56)"/><polygon class="cls-3" points="34.27 15.16 43.52 15.16 61.76 68.1 80.77 12.33 99.99 68.1 118.32 15.16 127.56 15.16 99.69 89.95 80.87 34.28 62.15 89.95 34.27 15.16 34.27 15.16"/><path class="cls-3" d="M241.7,163.55a28.79,28.79,0,0,0,11.23-2.24,29.75,29.75,0,0,0,9.61-6.51,29.11,29.11,0,0,0,8.65-20.93,30,30,0,0,0-2.23-11.5,29.62,29.62,0,0,0-38.62-16.07,28.3,28.3,0,0,0-9.49,6.43,29.65,29.65,0,0,0-6.44,9.69,30,30,0,0,0-2.21,11.45,29.36,29.36,0,0,0,2.19,11.3,29.73,29.73,0,0,0,6.46,9.63,30.07,30.07,0,0,0,9.61,6.54,28.92,28.92,0,0,0,11.24,2.21Zm38.45-29.67a37.36,37.36,0,0,1-2.85,14.54A36.13,36.13,0,0,1,269,160.56a39.06,39.06,0,0,1-54.49,0,36.66,36.66,0,0,1-11.26-26.68,37.26,37.26,0,0,1,2.88-14.58,36.77,36.77,0,0,1,8.38-12.21A38.18,38.18,0,0,1,227,99a39.54,39.54,0,0,1,29.48,0A38.1,38.1,0,0,1,269,107.09a36.21,36.21,0,0,1,8.31,12.16,37.77,37.77,0,0,1,2.85,14.63Z" transform="translate(-70.98 -82.56)"/><polygon class="cls-3" points="223.14 87.12 223.14 15.16 231.57 15.16 231.57 47.16 261.83 15.16 272.07 15.16 241.17 47.55 275.12 87.12 264.05 87.12 231.57 48.39 231.57 87.12 223.14 87.12 223.14 87.12"/><path class="cls-3" d="M417.32,155.5l-17.39-21.05-2.12,1.43q-5.91,4-8.16,7.28a12.45,12.45,0,0,0-2.24,7.23,12.92,12.92,0,0,0,3.76,9.49,12.76,12.76,0,0,0,9.42,3.79,18.3,18.3,0,0,0,8.07-2,37.92,37.92,0,0,0,8.66-6.2Zm-14.39-29.89,3.14-1.82a15.69,15.69,0,0,0,5-4.67,10.18,10.18,0,0,0,1.7-5.7,7.86,7.86,0,0,0-2.31-5.92,8.47,8.47,0,0,0-6.15-2.24,8.24,8.24,0,0,0-6.09,2.36,8.11,8.11,0,0,0-2.36,6,9.83,9.83,0,0,0,.66,3.54,10.8,10.8,0,0,0,1.94,3.19l4.43,5.26ZM429,169.68l-6.94-8.33a33.62,33.62,0,0,1-10.22,7.25A28.32,28.32,0,0,1,400.2,171q-9.54,0-15.44-5.65t-5.9-14.7A19.4,19.4,0,0,1,383,138.76q4.11-5.49,12.42-10.25l-2.95-3.3a20.2,20.2,0,0,1-3.49-5.7,17,17,0,0,1-1.14-6.29,14.08,14.08,0,0,1,4.6-10.89q4.59-4.2,11.91-4.2t11.87,4.13a14.23,14.23,0,0,1,4.45,11,16,16,0,0,1-3.12,9.61q-3.11,4.31-9.93,8.43l15.65,18.93q2-2.16,4.08-4.94t4.48-6.28l5.25,5.76a71.55,71.55,0,0,1-4.39,6,64.41,64.41,0,0,1-4.79,5.19l11.5,13.78Z" transform="translate(-70.98 -82.56)"/><polygon class="cls-3" points="442.88 89.95 420.52 38.23 411.48 87.12 403.13 87.12 417.72 12.33 442.88 71.84 468.03 12.33 482.63 87.12 474.27 87.12 465.13 38.23 442.88 89.95 442.88 89.95"/><path class="cls-3" d="M599.84,163.55a28.79,28.79,0,0,0,11.23-2.24,29.75,29.75,0,0,0,9.61-6.51,29.11,29.11,0,0,0,8.65-20.93,30,30,0,0,0-2.23-11.5,29.33,29.33,0,0,0-27.26-18.29,29.38,29.38,0,0,0-11.36,2.22,28.3,28.3,0,0,0-9.49,6.43,29.65,29.65,0,0,0-6.44,9.69,30,30,0,0,0-2.21,11.45,29.36,29.36,0,0,0,2.19,11.3A29.73,29.73,0,0,0,579,154.8a30.07,30.07,0,0,0,9.61,6.54,28.92,28.92,0,0,0,11.24,2.21Zm38.45-29.67a37.36,37.36,0,0,1-2.85,14.54,36.13,36.13,0,0,1-8.31,12.14,39.06,39.06,0,0,1-54.49,0,36.66,36.66,0,0,1-11.26-26.68,37.26,37.26,0,0,1,2.88-14.58,36.77,36.77,0,0,1,8.38-12.21A38.18,38.18,0,0,1,585.13,99a39.54,39.54,0,0,1,29.48,0,38.1,38.1,0,0,1,12.52,8.11,36.21,36.21,0,0,1,8.31,12.16,37.77,37.77,0,0,1,2.85,14.63Z" transform="translate(-70.98 -82.56)"/><path class="cls-3" d="M652.26,169.68v-72h16.91a49.61,49.61,0,0,1,10.58.81,15.63,15.63,0,0,1,5.92,2.78,16.51,16.51,0,0,1,5,6.71,24,24,0,0,1,1.76,9.32q0,8.85-4.93,13.44T673,135.38h-1.53l27.46,34.3H688.08l-26.21-34.3h-1.24v34.3ZM660.63,105v24h6.53q10,0,13.41-2.57t3.39-9q0-6.92-3.48-9.69T667.16,105Z" transform="translate(-70.98 -82.56)"/><polygon class="cls-3" points="635.15 87.12 635.15 15.16 673.1 15.16 673.1 23 643.69 23 643.69 43.63 673.1 43.63 673.1 51.58 643.69 51.58 643.69 79.16 673.1 79.16 673.1 87.12 635.15 87.12 635.15 87.12"/></svg>